<svg fill="#9647dbca" height="200px" width="200px" version="1.1" id="Layer_1" xmlns="http://www.w3.org/2000/svg" xmlns:xlink="http://www.w3.org/1999/xlink" viewBox="0 0 512 512" xml:space="preserve" stroke="#9647dbca"><g id="SVGRepo_bgCarrier" stroke-width="0"></g><g id="SVGRepo_tracerCarrier" stroke-linecap="round" stroke-linejoin="round"></g><g id="SVGRepo_iconCarrier"> <g> <g> <path d="M501.801,94.142H50.11c-5.633,0-10.199,4.567-10.199,10.199v157.472C17.74,262.783,0,281.119,0,303.524 c0,22.407,17.74,40.742,39.911,41.713v62.422c0,5.632,4.566,10.199,10.199,10.199h451.691c5.633,0,10.199-4.567,10.199-10.199 V104.341C512,98.709,507.434,94.142,501.801,94.142z M39.911,324.792c-10.914-0.942-19.512-10.113-19.512-21.267 c0-11.154,8.598-20.325,19.512-21.267V324.792z M491.602,397.46H60.309v-52.176h238.184c5.633,0,10.199-4.567,10.199-10.199 c0-5.632-4.566-10.199-10.199-10.199H60.309V165.268l210.384,126.703c3.237,1.95,7.287,1.95,10.523,0l210.385-126.703V397.46z M491.602,141.456L275.955,271.326L60.309,141.455V114.54h431.293V141.456z"></path> </g> </g> <g> <g> <path d="M336.995,324.885H332.3c-5.633,0-10.199,4.567-10.199,10.199c0,5.632,4.566,10.199,10.199,10.199h4.695 c5.633,0,10.199-4.567,10.199-10.199C347.194,329.453,342.628,324.885,336.995,324.885z"></path> </g> </g> <g> <g> <path d="M426.543,318.003l-36.974-21.351c-6.175-3.565-13.549-3.566-19.724,0c-6.176,3.566-9.863,9.951-9.863,17.082v42.701 c0,7.131,3.687,13.517,9.863,17.083c3.087,1.783,6.474,2.674,9.862,2.674c3.387,0,6.775-0.891,9.863-2.674l36.974-21.351 c6.175-3.566,9.862-9.951,9.862-17.082S432.718,321.569,426.543,318.003z M380.38,355.268v-40.366l34.953,20.183L380.38,355.268z"></path> </g> </g> </g></svg>
